TITLE ""
FILE "P1Q_t_1401-1409.mp3" MP3
  TRACK 01 AUDIO
    TITLE "P1Q_t_1401-1409_01"
    INDEX 01 00:00:00
  TRACK 02 AUDIO
    TITLE "P1Q_t_1401-1409_02"
    INDEX 01 00:00:08
  TRACK 03 AUDIO
    TITLE "P1Q_t_1401-1409_03"
    INDEX 01 00:02:11
  TRACK 04 AUDIO
    TITLE "P1Q_t_1401-1409_04"
    INDEX 01 00:02:58
  TRACK 05 AUDIO
    TITLE "P1Q_t_1401-1409_05"
    INDEX 01 00:03:67
  TRACK 06 AUDIO
    TITLE "P1Q_t_1401-1409_06"
    INDEX 01 00:04:37
  TRACK 07 AUDIO
    TITLE "P1Q_t_1401-1409_07"
    INDEX 01 00:05:47
  TRACK 08 AUDIO
    TITLE "P1Q_t_1401-1409_08"
    INDEX 01 00:05:68
  TRACK 09 AUDIO
    TITLE "P1Q_t_1401-1409_09"
    INDEX 01 00:11:36
  TRACK 10 AUDIO
    TITLE "P1Q_t_1401-1409_10"
    INDEX 01 00:11:55
  TRACK 11 AUDIO
    TITLE "P1Q_t_1401-1409_11"
    INDEX 01 00:16:39
  TRACK 12 AUDIO
    TITLE "P1Q_t_1401-1409_12"
    INDEX 01 00:17:11
  TRACK 13 AUDIO
    TITLE "P1Q_t_1401-1409_13"
    INDEX 01 00:18:28
  TRACK 14 AUDIO
    TITLE "P1Q_t_1401-1409_14"
    INDEX 01 00:18:47
  TRACK 15 AUDIO
    TITLE "P1Q_t_1401-1409_15"
    INDEX 01 00:22:33
  TRACK 16 AUDIO
    TITLE "P1Q_t_1401-1409_16"
    INDEX 01 00:22:53
  TRACK 17 AUDIO
    TITLE "P1Q_t_1401-1409_17"
    INDEX 01 00:27:66
  TRACK 18 AUDIO
    TITLE "P1Q_t_1401-1409_18"
    INDEX 01 00:28:36
  TRACK 19 AUDIO
    TITLE "P1Q_t_1401-1409_19"
    INDEX 01 00:29:35
  TRACK 20 AUDIO
    TITLE "P1Q_t_1401-1409_20"
    INDEX 01 00:29:55
  TRACK 21 AUDIO
    TITLE "P1Q_t_1401-1409_21"
    INDEX 01 00:34:19
  TRACK 22 AUDIO
    TITLE "P1Q_t_1401-1409_22"
    INDEX 01 00:34:39
  TRACK 23 AUDIO
    TITLE "P1Q_t_1401-1409_23"
    INDEX 01 00:38:44
  TRACK 24 AUDIO
    TITLE "P1Q_t_1401-1409_24"
    INDEX 01 00:39:12
  TRACK 25 AUDIO
    TITLE "P1Q_t_1401-1409_25"
    INDEX 01 00:40:24
  TRACK 26 AUDIO
    TITLE "P1Q_t_1401-1409_26"
    INDEX 01 00:40:45
  TRACK 27 AUDIO
    TITLE "P1Q_t_1401-1409_27"
    INDEX 01 00:42:20
  TRACK 28 AUDIO
    TITLE "P1Q_t_1401-1409_28"
    INDEX 01 00:42:40
  TRACK 29 AUDIO
    TITLE "P1Q_t_1401-1409_29"
    INDEX 01 00:48:09
  TRACK 30 AUDIO
    TITLE "P1Q_t_1401-1409_30"
    INDEX 01 00:48:54
  TRACK 31 AUDIO
    TITLE "P1Q_t_1401-1409_31"
    INDEX 01 00:50:06
  TRACK 32 AUDIO
    TITLE "P1Q_t_1401-1409_32"
    INDEX 01 00:50:26
  TRACK 33 AUDIO
    TITLE "P1Q_t_1401-1409_33"
    INDEX 01 00:51:66
  TRACK 34 AUDIO
    TITLE "P1Q_t_1401-1409_34"
    INDEX 01 00:52:11
  TRACK 35 AUDIO
    TITLE "P1Q_t_1401-1409_35"
    INDEX 01 00:57:08
  TRACK 36 AUDIO
    TITLE "P1Q_t_1401-1409_36"
    INDEX 01 00:57:55
  TRACK 37 AUDIO
    TITLE "P1Q_t_1401-1409_37"
    INDEX 01 00:59:05
  TRACK 38 AUDIO
    TITLE "P1Q_t_1401-1409_38"
    INDEX 01 00:59:27
  TRACK 39 AUDIO
    TITLE "P1Q_t_1401-1409_39"
    INDEX 01 01:03:19
  TRACK 40 AUDIO
    TITLE "P1Q_t_1401-1409_40"
    INDEX 01 01:03:36
  TRACK 41 AUDIO
    TITLE "P1Q_t_1401-1409_41"
    INDEX 01 01:09:19
  TRACK 42 AUDIO
    TITLE "P1Q_t_1401-1409_42"
    INDEX 01 01:09:66
  TRACK 43 AUDIO
    TITLE "P1Q_t_1401-1409_43"
    INDEX 01 01:11:03
  TRACK 44 AUDIO
    TITLE "P1Q_t_1401-1409_44"
    INDEX 01 01:11:24
  TRACK 45 AUDIO
    TITLE "P1Q_t_1401-1409_45"
    INDEX 01 01:14:36
  TRACK 46 AUDIO
    TITLE "P1Q_t_1401-1409_46"
    INDEX 01 01:14:56
  TRACK 47 AUDIO
    TITLE "P1Q_t_1401-1409_47"
    INDEX 01 01:20:23
  TRACK 48 AUDIO
    TITLE "P1Q_t_1401-1409_48"
    INDEX 01 01:20:68
  TRACK 49 AUDIO
    TITLE "P1Q_t_1401-1409_49"
    INDEX 01 01:21:70
  TRACK 50 AUDIO
    TITLE "P1Q_t_1401-1409_50"
    INDEX 01 01:22:12
  TRACK 51 AUDIO
    TITLE "P1Q_t_1401-1409_51"
    INDEX 01 01:25:75
  TRACK 52 AUDIO
    TITLE "P1Q_t_1401-1409_52"
    INDEX 01 01:26:20
  TRACK 53 AUDIO
    TITLE "P1Q_t_1401-1409_53"
    INDEX 01 01:31:35
  TRACK 54 AUDIO
    TITLE "P1Q_t_1401-1409_54"
    INDEX 01 01:32:07
  TRACK 55 AUDIO
    TITLE "P1Q_t_1401-1409_55"
    INDEX 01 01:33:14
  TRACK 56 AUDIO
    TITLE "P1Q_t_1401-1409_56"
    INDEX 01 01:33:35
  TRACK 57 AUDIO
    TITLE "P1Q_t_1401-1409_57"
    INDEX 01 01:38:37
  TRACK 58 AUDIO
    TITLE "P1Q_t_1401-1409_58"
    INDEX 01 01:38:54
  TRACK 59 AUDIO
    TITLE "P1Q_t_1401-1409_59"
    INDEX 01 01:42:56
